<?xml version="1.0" standalone="no"?><!DOCTYPE svg PUBLIC "-//W3C//DTD SVG 1.1//EN" "http://www.w3.org/Graphics/SVG/1.1/DTD/svg11.dtd"><svg t="1533092501669" class="icon" style="" viewBox="0 0 1024 1024" version="1.1" xmlns="http://www.w3.org/2000/svg" p-id="1548" xmlns:xlink="http://www.w3.org/1999/xlink" width="200" height="200"><defs><style type="text/css"></style></defs><path d="M369.8817 804.618501c-29.356608 0-53.148477 23.792892-53.148477 53.148477 0 29.357632 23.791869 53.148477 53.148477 53.148477 29.356608 0 53.147454-23.789823 53.147454-53.148477C423.029154 828.411393 399.238308 804.618501 369.8817 804.618501zM858.841961 804.618501c-29.356608 0-53.148477 23.792892-53.148477 53.148477 0 29.357632 23.791869 53.148477 53.148477 53.148477 29.355585 0 53.148477-23.789823 53.148477-53.148477C911.990438 828.411393 888.197546 804.618501 858.841961 804.618501zM848.21288 536.885783c58.713216 0 106.296955-47.605228 106.296955-106.295931L954.509834 273.139867c0-23.50125-19.037589-42.518373-42.519396-42.518373L423.029154 230.621495c-23.480784 0-42.518373 19.017122-42.518373 42.518373 0 23.459295 19.037589 42.518373 42.518373 42.518373l446.442912 0 0 95.665827c0 23.460318-19.037589 42.518373-42.518373 42.518373l-80.112596 8.762571c0.050142 0.158612 0.093121 0.320295 0.144286 0.478907L378.18276 507.020592c-7.212262 0.154519-14.247492 1.029446-21.038152 2.552126-2.876514 0.464581-5.643534 1.210571-8.275477 2.206248-5.357008 1.667989-10.530844 3.750417-15.486716 6.205329L230.422462 138.432863c-3.400446-20.087501-20.865213-35.366486-41.908482-35.366486l-85.036745 0c-23.479761 0-42.518373 19.016099-42.518373 42.518373 0 23.459295 19.037589 42.518373 42.518373 42.518373l52.292993 0 119.599935 440.871009c7.584746 51.256384 51.760874 90.608647 105.140619 90.608647l531.479657 0c23.480784 0 42.519396-19.057031 42.519396-42.517349 0-23.503297-19.037589-42.519396-42.519396-42.519396L380.510782 634.546034c-7.890714 0-14.755052-4.307096-18.423605-10.682293-0.048095-0.190335-0.085958-0.379647-0.137123-0.569982l-2.695389-9.93528c0-0.023536-0.00307-0.048095-0.00307-0.071631 0-11.748578 9.508561-21.258163 21.259186-21.258163l100.980879-11.293207 0.336668 0.378623c-0.080841-0.254803-0.150426-0.5137-0.233314-0.76748l364.866988-43.481304C847.044264 536.873504 847.626525 536.885783 848.21288 536.885783z" p-id="1549"></path></svg>