<?xml version="1.0" standalone="no"?><!DOCTYPE svg PUBLIC "-//W3C//DTD SVG 1.1//EN" "http://www.w3.org/Graphics/SVG/1.1/DTD/svg11.dtd"><svg t="1533031668885" class="icon" style="" viewBox="0 0 1024 1024" version="1.1" xmlns="http://www.w3.org/2000/svg" p-id="2121" xmlns:xlink="http://www.w3.org/1999/xlink" width="200" height="200"><defs><style type="text/css"></style></defs><path d="M511.797 962c-247.607 0-449.051-201.446-449.051-449.058 0-247.607 201.446-449.051 449.051-449.051 247.612 0 449.058 201.442 449.058 449.051 0.004 247.607-201.442 449.058-449.058 449.058zM511.797 99.842c-227.783 0-413.095 185.316-413.095 413.095 0 227.787 185.316 413.107 413.097 413.107 227.787 0 413.107-185.319 413.107-413.107 0-227.781-185.319-413.095-413.107-413.095z" p-id="2122"></path><path d="M759.055 401.129l-278.804 278.81c-12.858 12.858-32.457 14.862-47.417 6.029-2.769-1.644-5.379-3.652-7.759-6.029-0.007-0.004-0.007-0.004-0.007-0.004l-160.521-160.523c-15.237-15.236-15.237-39.943 0-55.183s39.943-15.239 55.179 0l132.938 132.938 251.217-251.22c15.243-15.239 39.943-15.239 55.179 0 15.231 15.239 15.231 39.943-0.007 55.183v0z" p-id="2123"></path><path d="" p-id="2124"></path></svg>