<?xml version="1.0" standalone="no"?><!DOCTYPE svg PUBLIC "-//W3C//DTD SVG 1.1//EN" "http://www.w3.org/Graphics/SVG/1.1/DTD/svg11.dtd"><svg t="1533031635046" class="icon" style="" viewBox="0 0 1024 1024" version="1.1" xmlns="http://www.w3.org/2000/svg" p-id="1905" xmlns:xlink="http://www.w3.org/1999/xlink" width="200" height="200"><defs><style type="text/css"></style></defs><path d="M512 0C228.894118 0 0 228.894118 0 512s228.894118 512 512 512 512-228.894118 512-512S795.105882 0 512 0z m204.8 352.376471L557.176471 512l156.611764 156.611765c12.047059 12.047059 12.047059 30.117647 0 42.164706-12.047059 12.047059-30.117647 12.047059-42.164706 0L512 557.176471l-156.611765 156.611764c-12.047059 12.047059-33.129412 12.047059-45.17647 0s-12.047059-33.129412 0-45.17647l156.611764-156.611765-156.611764-156.611765c-9.035294-6.023529-12.047059-15.058824-12.047059-24.094117 0-9.035294 3.011765-18.070588 9.035294-24.094118 6.023529-6.023529 15.058824-9.035294 21.082353-9.035294s18.070588 3.011765 21.082353 9.035294l159.623529 156.611765 159.62353-156.611765c6.023529-6.023529 15.058824-9.035294 24.094117-9.035294 9.035294 0 18.070588 3.011765 24.094118 9.035294 12.047059 15.058824 12.047059 33.129412 0 45.176471z" fill="#979797" p-id="1906"></path></svg>