<?xml version="1.0" standalone="no"?><!DOCTYPE svg PUBLIC "-//W3C//DTD SVG 1.1//EN" "http://www.w3.org/Graphics/SVG/1.1/DTD/svg11.dtd"><svg t="1533031653511" class="icon" style="" viewBox="0 0 1025 1024" version="1.1" xmlns="http://www.w3.org/2000/svg" p-id="2013" xmlns:xlink="http://www.w3.org/1999/xlink" width="200.1953125" height="200"><defs><style type="text/css"></style></defs><path d="M1015.846861 865.85856l-355.84-355.84 357.77536-357.7856a21.03296 21.03296 0 0 0 0-29.75232L899.945421 4.63872a21.05344 21.05344 0 0 0-29.76768 0l-357.77024 357.7856-355.84-355.84a21.07392 21.07392 0 0 0-29.76768 0L8.159181 125.24032a21.04832 21.04832 0 0 0 0 29.7728l355.84 355.8144L6.218701 868.59776a21.04832 21.04832 0 0 0 0 29.7728l117.8368 117.8368a21.0432 21.0432 0 0 0 29.76256 0L511.588301 658.432l355.84 355.84a21.0176 21.0176 0 0 0 29.76256 0l118.656-118.66624a21.04832 21.04832 0 0 0 0-29.7472z" fill="#AFAFAF" p-id="2014"></path></svg>