<?xml version="1.0" standalone="no"?><!DOCTYPE svg PUBLIC "-//W3C//DTD SVG 1.1//EN" "http://www.w3.org/Graphics/SVG/1.1/DTD/svg11.dtd"><svg t="1533031723391" class="icon" style="" viewBox="0 0 1024 1024" version="1.1" xmlns="http://www.w3.org/2000/svg" p-id="2798" xmlns:xlink="http://www.w3.org/1999/xlink" width="200" height="200"><defs><style type="text/css"></style></defs><path d="M0 512C0 229.2224 229.248 0 512 0c282.7776 0 512 229.2224 512 512s-229.2224 512-512 512C229.248 1024 0 794.7776 0 512z m291.0208 329.1648c0.4864 0.4096 1.28 0.6144 2.3296 0.6144 25.984 0 214.3488-114.5344 214.3488-114.5344s202.496 128.3584 216.6784 113.92c10.4192-10.5984-17.5872-140.4672-32.768-206.1824-0.512-2.0736-79.2064 8.7552-166.4256 9.344-77.4912 0.512-163.9168-4.736-163.9168-4.736l201.728-150.1696s-62.6688-11.4688-110.3104-15.7696c-68.0448-6.144-127.6928-5.9904-120.2944-7.8848 11.8016-2.9952 94.5152-10.752 175.3088-7.8848 73.7792 2.6112 146.7648 15.7696 146.7648 15.7696l-201.7792 143.872s44.0576 6.7584 80.64 8.1664c69.7088 2.6624 154.7264 0.7424 154.5472 0a385.536 385.536 0 0 1-4.864-25.7792s181.7856-152.32 175.3088-170.9056c-6.5024-18.5856-242.2784-35.2-242.2784-35.2S528.8192 174.336 507.6992 174.336c-21.12 0-108.3392 219.4944-108.3392 219.4944s-234.8032 16.5376-242.2528 35.2c-7.4752 18.688 175.2832 170.9056 175.2832 170.9056s-53.9904 231.1424-41.3696 241.2544z" fill="#323232" p-id="2799"></path></svg>