<?xml version="1.0" standalone="no"?><!DOCTYPE svg PUBLIC "-//W3C//DTD SVG 1.1//EN" "http://www.w3.org/Graphics/SVG/1.1/DTD/svg11.dtd"><svg t="1533092490613" class="icon" style="" viewBox="0 0 1047 1024" version="1.1" xmlns="http://www.w3.org/2000/svg" p-id="1312" xmlns:xlink="http://www.w3.org/1999/xlink" width="204.4921875" height="200"><defs><style type="text/css"></style></defs><path d="M458.309113 914.719368C205.908208 914.719368 1.304231 709.948412 1.304231 457.359683 1.304231 204.770957 205.908208 0 458.309113 0 710.71002 0 915.313997 204.770957 915.313997 457.359683 915.313997 709.948412 710.71002 914.719368 458.309113 914.719368L458.309113 914.719368ZM458.309113 870.197629C686.113209 870.197629 870.792258 685.367859 870.792258 457.359683 870.792258 229.351507 686.113209 44.521739 458.309113 44.521739 230.50502 44.521739 45.82597 229.351507 45.82597 457.359683 45.82597 685.367859 230.50502 870.197629 458.309113 870.197629L458.309113 870.197629ZM803.460461 738.886209 1016.994576 933.166561 1033.460204 948.147529 1018.479235 964.613158 988.517297 997.544412 973.536329 1014.010039 957.070701 999.02907 743.536587 804.748718 727.070958 789.767749 742.051927 773.302123 772.013864 740.370866 804.94512 770.332803 774.983181 803.26406 773.498524 771.817463 987.032639 966.097815 955.586043 967.582475 985.54798 934.651218 987.032639 966.097815 773.498524 771.817463 803.460461 738.886209 803.460461 738.886209Z" p-id="1313"></path></svg>