<?xml version="1.0" standalone="no"?><!DOCTYPE svg PUBLIC "-//W3C//DTD SVG 1.1//EN" "http://www.w3.org/Graphics/SVG/1.1/DTD/svg11.dtd"><svg t="1533031744494" class="icon" style="" viewBox="0 0 1025 1024" version="1.1" xmlns="http://www.w3.org/2000/svg" p-id="3019" xmlns:xlink="http://www.w3.org/1999/xlink" width="200.1953125" height="200"><defs><style type="text/css"></style></defs><path d="M757.45834 501.17504c-39.80032-7.70432-20.48128-29.1008-20.48128-29.1008s38.94272-64.19072-7.70432-110.8352c-57.77024-57.77152-198.19776 7.3664-198.19776 7.3664-53.61408 16.65792-39.43168-7.61216-31.85024-48.84608 0-48.60288-16.62848-130.85824-159.49952-82.25536C196.97706 286.34752 74.46314 457.46304 74.46314 457.46304-10.75798 571.20384 0.49066 659.0848 0.49066 659.0848 21.79626 853.12512 227.97226 906.40384 388.32682 919.0272c168.73088 13.20576 396.39808-58.1696 465.47712-204.82816C922.82538 567.29216 797.3777 509.152 757.45834 501.17504zM400.80042 864.31104c-167.44832 7.82592-302.8608-76.17024-302.8608-187.92448 0-111.90784 135.41248-201.62304 302.8608-209.35424 167.6288-7.73376 303.28832 61.34656 303.28832 172.97792C704.08746 751.76448 568.42922 856.67072 400.80042 864.31104z" p-id="3020"></path><path d="M367.4193 540.72704c-168.4864 19.71712-148.98432 177.50528-148.98432 177.50528s-1.74208 49.9776 45.14688 75.40992c98.5792 53.37088 200.06272 21.05984 251.3536-45.14816C566.22634 682.25536 536.08746 521.16608 367.4193 540.72704zM324.93098 762.1888c-31.48544 3.6992-56.7936-14.46016-56.7936-40.74752 0-26.22464 22.49728-53.6448 53.98144-56.9152 36.13184-3.45472 59.60576 17.36192 59.60576 43.68128C381.72458 734.40128 356.23338 758.6112 324.93098 762.1888zM424.21418 677.61024c-10.63808 7.94624-23.7824 6.84544-29.40672-2.69184-5.8688-9.32352-3.66848-24.27008 7.12064-32.09472 12.50304-9.29408 25.46304-6.60352 31.08864 2.68928C438.64106 655.05152 434.60522 669.38624 424.21418 677.61024z" p-id="3021"></path><path d="M839.46794 432.88576c13.57312 0 25.0944-10.0544 27.0528-23.16928 0.24448-0.97792 0.36736-1.83424 0.36736-2.93504 20.57216-184.96128-151.552-153.14176-151.552-153.14176-15.2832 0-27.57248 12.37888-27.57248 27.81696 0 15.16032 12.28928 27.50976 27.57248 27.50976 123.61344-27.26656 96.34688 96.34688 96.34688 96.34688C811.68298 420.63104 824.15402 432.88576 839.46794 432.88576z" p-id="3022"></path><path d="M819.3873 110.00576c-59.48416-13.9392-120.71424-1.92512-137.85856 1.376-1.34656 0.1216-2.56896 1.34528-3.79008 1.58976-0.61184 0.12288-0.9792 0.73344-0.9792 0.73344-16.87296 4.79872-29.25184 20.44928-29.25184 38.94272 0 22.03776 17.88288 40.16512 40.13312 40.16512 0 0 21.70368-2.90432 36.37632-8.65152 14.55104-5.8688 137.85856-4.3712 199.05408 98.45632 33.44128 75.04384 14.70208 125.26464 12.34688 133.33376 0 0-7.94624 19.50208-7.94624 38.69696 0 22.16192 17.9136 36.0704 40.04352 36.0704 18.49216 0 34.05184-2.50624 38.57536-33.80864l0.24192 0C1072.05546 237.80736 925.88202 134.85696 819.3873 110.00576z" p-id="3023"></path></svg>