<?xml version="1.0" standalone="no"?><!DOCTYPE svg PUBLIC "-//W3C//DTD SVG 1.1//EN" "http://www.w3.org/Graphics/SVG/1.1/DTD/svg11.dtd"><svg t="1533031740418" class="icon" style="" viewBox="0 0 1261 1024" version="1.1" xmlns="http://www.w3.org/2000/svg" p-id="2906" xmlns:xlink="http://www.w3.org/1999/xlink" width="246.2890625" height="200"><defs><style type="text/css"></style></defs><path d="M0 353.801222v50.066083c0 120.02831 103.470809 227.862427 176.676678 276.958131l-43.164862 133.58646c20.778306-4.845105 147.565334-77.752396 153.536891-76.754874l142.950948 23.47908 0.570013-3.46079 55.264052 0.217148-11.875257-97.024241V644.181787c0-178.542789 185.647586-333.76936 370.49444-333.76936h26.702363c11.502034 0 12.920279 2.470053 23.356934 3.338643 0-22.291553-7.369445-46.096354-19.136128-69.717936H667.545506v9.635923c0 22.074406-24.653033 46.727439-46.727439 46.727439h-6.677287c-32.300698 0-66.752515-20.764735-66.752515-50.066083v-6.297279H353.801222v12.974566c0 22.223695-25.935561 43.388795-46.734225 43.388796h-10.009145c-27.584525 0-63.420657-23.750514-63.420657-50.066083v-10.009145c0-27.163802 35.944706-50.066083 63.420657-50.066083h6.677287c24.78875 0 50.066083 19.665425 50.066083 43.388796v10.151648h193.587043v-3.474361c0-26.105207 32.59249-50.072868 60.082014-50.072868h13.347788c25.962704 0 46.727439 26.030563 46.727439 53.404726v0.142503h207.715206c-31.533896-63.122079-94.445614-124.825914-132.276789-152.34258C676.984639 43.449868 569.863037 0 457.272031 0h-23.36372C308.166307 0 213.584976 46.333859 140.738758 100.68182 80.358166 145.733151 0 250.622205 0 353.801222z m500.660826 313.744284v3.338644c0 165.54108 182.498946 310.412427 350.455793 310.412427h36.711508c49.523214 0 96.902095-20.025076 123.50267-20.025076 16.693218 0 99.650369 57.856251 125.775935 62.728499l-32.321057-106.117295c6.039416-9.025195 41.861977-36.867583 54.232602-49.238207 17.426091-17.426091 33.949663-34.424673 47.908179-55.56263 25.765914-39.018701 54.734755-89.573365 54.734755-152.206863 0-32.924998-6.025845-64.553896-16.93751-94.309897h-187.405123c-4.227591 17.134299-25.765914 34.221097-42.649137 34.221098h-13.354574c-16.910366 0-40.050152-19.760427-40.050152-33.372865v-0.848233H812.742575c-5.924057 17.168228-26.295211 34.227883-38.387616 34.227883h-20.031862c-18.586473 0-40.050152-21.463678-40.050152-40.050151 0-26.709149 20.01829-46.727439 46.727439-46.727439h6.670502c20.052219 0 46.734225 22.93621 46.734225 43.388795 0 2.91792-0.570012 5.917271-1.581106 8.916621h148.44071V554.065552c0-19.794357 21.219387-40.056938 40.050152-40.056937h3.338643c23.682655 0 53.404726 16.917152 53.404726 40.050152v6.677287c0 1.85254-0.237505 3.718652-0.678586 5.584763h187.255835c-49.984652-135.934368-202.435806-232.544671-353.461929-232.544671h-23.363719c-191.245921 0-367.149011 139.802309-367.149011 333.776146z" p-id="2907"></path></svg>